<svg xmlns="http://www.w3.org/2000/svg" x="0px" y="0px"
width="32" height="32"
viewBox="0 0 172 172"
style=" fill:#000000;"><g fill="none" fill-rule="nonzero" stroke="none" stroke-width="1" stroke-linecap="butt" stroke-linejoin="miter" stroke-miterlimit="10" stroke-dasharray="" stroke-dashoffset="0" font-family="none" font-weight="none" font-size="none" text-anchor="none" style="mix-blend-mode: normal"><path d="M0,172v-172h172v172z" fill="none"></path><g fill="#aaaaaa"><path d="M114.66667,7.16667c-8.13417,0 -15.98906,3.43698 -21.19206,9.08431c-4.70133,5.1385 -7.5586,14.25932 -7.5586,21.59798c8.39933,0 17.37301,-4.30246 22.35384,-10.05013c4.644,-5.38217 6.39681,-11.96766 6.39681,-20.63216zM59.30697,39.51465c-15.007,0.00717 -37.80697,14.09437 -37.80697,47.2832c0,30.19317 26.99381,63.70215 42.23014,63.70215h0.20996c9.0945,0 12.27057,-5.89839 24.7334,-5.96289c12.46283,0.0645 15.64607,5.96289 24.7334,5.96289h0.20996c11.051,0 28.2473,-17.65743 36.88314,-38.87077c-9.36683,-4.67267 -15.87305,-14.33457 -15.87305,-25.62923c0,-11.0295 6.2135,-20.49879 15.22917,-25.29329c-7.79017,-14.64867 -21.60358,-21.19206 -31.81608,-21.19206c-11.0295,0 -20.25053,7.46061 -29.36653,7.46061c-9.116,0 -18.33704,-7.46061 -29.36654,-7.46061zM59.30697,53.84798c3.096,0 6.89747,1.4611 10.91797,3.02344c5.36067,2.07833 11.42524,4.43717 18.44857,4.43717c7.02333,0 13.1019,-2.35884 18.46257,-4.43717c4.01333,-1.55517 7.80797,-3.02344 10.90397,-3.02344c2.99567,0 7.65927,1.40892 12.02377,4.89909c-6.21351,7.55367 -9.75619,17.12643 -9.75619,27.25293c0,11.44517 4.44625,22.07826 12.12175,29.95443c-7.10217,12.07583 -15.88828,19.39524 -19.12044,20.21224c-1.08933,-0.01433 -1.87565,-0.3019 -4.56315,-1.45573c-4.13517,-1.77733 -10.39525,-4.45699 -20.15625,-4.50716c-9.6105,0.05017 -15.85311,2.72983 -19.98828,4.50716c-2.56567,1.10367 -3.40148,1.4059 -4.59115,1.44173c-7.095,-1.72717 -28.17676,-25.51849 -28.17676,-49.35482c0,-24.88983 15.81963,-32.9427 23.47363,-32.94987z"></path></g></g></svg>