<svg xmlns="http://www.w3.org/2000/svg" x="0px" y="0px"
width="32" height="32"
viewBox="0 0 172 172"
style=" fill:#000000;"><g fill="none" fill-rule="nonzero" stroke="none" stroke-width="1" stroke-linecap="butt" stroke-linejoin="miter" stroke-miterlimit="10" stroke-dasharray="" stroke-dashoffset="0" font-family="none" font-weight="none" font-size="none" text-anchor="none" style="mix-blend-mode: normal"><path d="M0,172v-172h172v172z" fill="none"></path><g fill="#aaaaaa"><path d="M53.75,7.16667c-0.91733,0 -1.83478,0.35105 -2.53353,1.0498c-1.3975,1.3975 -1.3975,3.66956 0,5.06706l9.39225,9.39225c-10.66343,7.82497 -17.60872,20.41563 -17.60872,34.65755h86c0,-14.24192 -6.9453,-26.83258 -17.60872,-34.65755l9.39225,-9.39225c1.3975,-1.40467 1.3975,-3.66239 0,-5.06706c-1.3975,-1.3975 -3.66956,-1.3975 -5.06706,0l-10.62402,10.62402c-5.75803,-2.86198 -12.22542,-4.50716 -19.09244,-4.50716c-6.86703,0 -13.33441,1.64518 -19.09245,4.50716l-10.62402,-10.62402c-0.69875,-0.69875 -1.6162,-1.0498 -2.53353,-1.0498zM64.5,35.83333h7.16667v7.16667h-7.16667zM100.33333,35.83333h7.16667v7.16667h-7.16667zM21.5,64.5v57.33333h14.33333v-57.33333zM43,64.5v57.33333c0,3.956 3.21067,7.16667 7.16667,7.16667h7.16667v35.83333h21.5v-35.83333h14.33333v35.83333h21.5v-35.83333h7.16667c3.956,0 7.16667,-3.21067 7.16667,-7.16667v-57.33333zM136.16667,64.5v57.33333h14.33333v-57.33333z"></path></g></g></svg>