<?xml version="1.0" encoding="UTF-8"?>
<svg xmlns="http://www.w3.org/2000/svg" xmlns:xlink="http://www.w3.org/1999/xlink" width="32pt" height="32pt" viewBox="0 0 32 32" version="1.1">
<g id="surface4503126">
<path style=" stroke:none;fill-rule:nonzero;fill:rgb(53.333333%,53.333333%,53.333333%);fill-opacity:1;" d="M 16 1.28125 C 7.878906 1.28125 1.28125 7.878906 1.28125 16 C 1.28125 24.121094 7.878906 30.71875 16 30.71875 C 24.121094 30.71875 30.71875 24.121094 30.71875 16 C 30.71875 7.878906 24.121094 1.28125 16 1.28125 Z M 16 2.558594 C 23.429688 2.558594 29.441406 8.570312 29.441406 16 C 29.441406 23.429688 23.429688 29.441406 16 29.441406 C 8.570312 29.441406 2.558594 23.429688 2.558594 16 C 2.558594 8.570312 8.570312 2.558594 16 2.558594 Z M 15.960938 6.898438 C 15.867188 6.914062 15.765625 6.949219 15.679688 7 L 15.101562 7.339844 C 14.753906 7.539062 14.640625 7.996094 14.839844 8.339844 L 19.859375 16.980469 L 21.699219 15.898438 L 16.679688 7.261719 C 16.53125 7.003906 16.238281 6.863281 15.960938 6.898438 Z M 14.421875 9.78125 C 14.140625 9.742188 13.851562 9.859375 13.699219 10.121094 L 13.058594 11.21875 L 14.960938 12.320312 L 15.601562 11.238281 C 15.800781 10.894531 15.683594 10.441406 15.339844 10.238281 L 14.699219 9.859375 C 14.613281 9.808594 14.511719 9.792969 14.421875 9.78125 Z M 12.898438 11.480469 L 8.480469 19.078125 L 10.359375 20.179688 L 14.800781 12.601562 Z M 6.601562 14.921875 L 6.601562 17.039062 L 9.300781 17.039062 L 10.539062 14.921875 Z M 13.71875 14.921875 L 12.539062 17.039062 L 19.421875 17.039062 L 18.238281 14.921875 Z M 21.578125 14.921875 L 22.71875 17.039062 L 25.359375 17.039062 L 25.359375 14.921875 Z M 21.898438 16.261719 L 20.058594 17.320312 L 21.121094 19.160156 L 22.960938 18.078125 Z M 22.878906 18.578125 C 22.816406 18.589844 22.742188 18.625 22.679688 18.660156 C 22.378906 18.828125 21.941406 19.082031 21.679688 19.238281 C 21.1875 19.535156 21.566406 20.390625 21.679688 20.578125 C 22.316406 21.648438 22.964844 21.503906 23.460938 22.261719 C 23.734375 22.671875 23.65625 22.84375 23.738281 22.980469 C 23.773438 23.03125 23.898438 23.097656 23.941406 23.039062 C 24.703125 21.984375 24.472656 20.148438 23.921875 19.339844 C 23.695312 19.011719 23.3125 18.511719 22.878906 18.578125 Z M 8.238281 19.480469 L 7.320312 22.941406 C 7.300781 23.003906 7.324219 23.066406 7.378906 23.101562 C 7.433594 23.132812 7.515625 23.125 7.558594 23.078125 L 10.121094 20.601562 Z M 8.238281 19.480469 "/>
</g>
</svg>
