<?xml version="1.0" encoding="UTF-8"?>
<svg xmlns="http://www.w3.org/2000/svg" xmlns:xlink="http://www.w3.org/1999/xlink" width="32pt" height="32pt" viewBox="0 0 32 32" version="1.1">
<g id="surface4501814">
<path style=" stroke:none;fill-rule:nonzero;fill:rgb(53.333333%,53.333333%,53.333333%);fill-opacity:1;" d="M 4.339844 1.28125 C 4.332031 1.28125 4.328125 1.296875 4.320312 1.300781 C 4.300781 1.300781 4.277344 1.296875 4.261719 1.300781 C 4.125 1.316406 4 1.371094 3.898438 1.460938 C 3.46875 1.695312 3.199219 2.175781 3.199219 2.699219 L 3.199219 29.441406 C 3.199219 29.835938 3.375 30.253906 3.699219 30.5 C 3.851562 30.667969 4.078125 30.742188 4.300781 30.699219 C 4.59375 30.714844 4.898438 30.648438 5.160156 30.5 C 5.703125 30.183594 16.78125 23.78125 16.78125 23.78125 L 22.558594 20.441406 C 22.574219 20.433594 22.585938 20.425781 22.601562 20.421875 L 22.679688 20.378906 C 22.679688 20.378906 22.757812 20.339844 22.761719 20.339844 C 22.765625 20.332031 22.773438 20.328125 22.78125 20.320312 C 22.953125 20.21875 27.6875 17.496094 28.339844 17.121094 C 28.789062 16.859375 29.148438 16.4375 29.140625 15.921875 C 29.132812 15.402344 28.765625 15 28.359375 14.78125 C 28.136719 14.660156 26.675781 13.824219 25.320312 13.039062 C 23.964844 12.253906 22.679688 11.5 22.679688 11.5 L 16.78125 8.101562 C 16.78125 8.101562 6.050781 1.90625 5.421875 1.539062 C 5.199219 1.414062 4.945312 1.308594 4.699219 1.28125 C 4.578125 1.265625 4.460938 1.261719 4.339844 1.28125 Z M 4.480469 3 L 17.519531 15.941406 L 4.480469 28.878906 Z M 7.519531 4.21875 C 10.773438 6.101562 16.140625 9.199219 16.140625 9.199219 L 21.300781 12.179688 L 18.421875 15.039062 Z M 22.441406 12.839844 C 22.746094 13.019531 23.53125 13.476562 24.679688 14.140625 C 26.035156 14.925781 27.425781 15.71875 27.761719 15.898438 C 27.792969 15.917969 27.78125 15.925781 27.800781 15.941406 C 27.773438 15.957031 27.765625 15.960938 27.699219 16 C 27.085938 16.355469 23.097656 18.671875 22.460938 19.039062 L 19.320312 15.941406 Z M 18.421875 16.820312 L 21.320312 19.699219 L 16.140625 22.679688 C 16.140625 22.679688 10.914062 25.695312 7.539062 27.640625 Z M 18.421875 16.820312 "/>
</g>
</svg>
